#N canvas 564 252 450 300 12;
#X obj 73 74 openpanel;
#X obj 77 151 readsf~;
#X msg 75 109 open \$1;
#X obj 92 224 dac~;
#X obj 67 26 bng 15 250 50 0 empty empty empty 17 7 0 10 -262144 -1
-1;
#X msg 198 100 1;
#X text 84 23 first press;
#X text 228 100 then press;
#X obj 96 192 lop~;
#X obj 225 212 hsl 128 15 20 20000 1 0 empty empty empty -2 -8 0 10
-262144 -1 -1 12700 1;
#X text 291 10 make sure DSP is on;
#X obj 360 85 loadbang;
#X msg 361 112 20000;
#X connect 0 0 2 0;
#X connect 1 0 8 0;
#X connect 2 0 1 0;
#X connect 4 0 0 0;
#X connect 5 0 1 0;
#X connect 8 0 3 1;
#X connect 8 0 3 0;
#X connect 9 0 8 1;
#X connect 11 0 12 0;
#X connect 12 0 9 0;
